<mxfile host="app.diagrams.net" modified="2022-06-17T11:16:42.146Z" agent="5.0 (Macintosh; Intel Mac OS X 10_15_7) AppleWebKit/537.36 (KHTML, like Gecko) Chrome/102.0.0.0 Safari/537.36" etag="BHvZwF1T92VkirzLu1BT" version="20.0.1" type="github">
  <diagram id="-GEG7NYa3MDwUE9U0rUo" name="Page-1">
    <mxGraphModel dx="830" dy="554" grid="1" gridSize="10" guides="1" tooltips="1" connect="1" arrows="1" fold="1" page="1" pageScale="1" pageWidth="850" pageHeight="1100" math="0" shadow="0">
      <root>
        <mxCell id="0" />
        <mxCell id="1" parent="0" />
        <mxCell id="B6OoX21ZwnaRHiZaLL_V-9" value="AWS Cloud" style="sketch=0;outlineConnect=0;gradientColor=none;html=1;whiteSpace=wrap;fontSize=12;fontStyle=0;shape=mxgraph.aws4.group;grIcon=mxgraph.aws4.group_aws_cloud;strokeColor=#AAB7B8;fillColor=none;verticalAlign=top;align=left;spacingLeft=30;fontColor=#AAB7B8;dashed=0;" vertex="1" parent="1">
          <mxGeometry x="120" y="640" width="1120" height="1000" as="geometry" />
        </mxCell>
        <mxCell id="B6OoX21ZwnaRHiZaLL_V-12" value="" style="sketch=0;points=[[0,0,0],[0.25,0,0],[0.5,0,0],[0.75,0,0],[1,0,0],[0,1,0],[0.25,1,0],[0.5,1,0],[0.75,1,0],[1,1,0],[0,0.25,0],[0,0.5,0],[0,0.75,0],[1,0.25,0],[1,0.5,0],[1,0.75,0]];outlineConnect=0;fontColor=#232F3E;gradientColor=#945DF2;gradientDirection=north;fillColor=#5A30B5;strokeColor=#ffffff;dashed=0;verticalLabelPosition=bottom;verticalAlign=top;align=center;html=1;fontSize=12;fontStyle=0;aspect=fixed;shape=mxgraph.aws4.resourceIcon;resIcon=mxgraph.aws4.route_53;" vertex="1" parent="1">
          <mxGeometry x="10" y="710" width="78" height="78" as="geometry" />
        </mxCell>
        <mxCell id="B6OoX21ZwnaRHiZaLL_V-13" value="Alias Record" style="text;html=1;align=center;verticalAlign=middle;resizable=0;points=[];autosize=1;strokeColor=none;fillColor=none;" vertex="1" parent="1">
          <mxGeometry x="8" y="815" width="80" height="20" as="geometry" />
        </mxCell>
        <mxCell id="B6OoX21ZwnaRHiZaLL_V-30" value="Region" style="sketch=0;outlineConnect=0;gradientColor=none;html=1;whiteSpace=wrap;fontSize=12;fontStyle=0;shape=mxgraph.aws4.group;grIcon=mxgraph.aws4.group_region;strokeColor=#879196;fillColor=none;verticalAlign=top;align=left;spacingLeft=30;fontColor=#879196;dashed=1;shadow=0;" vertex="1" parent="1">
          <mxGeometry x="160" y="684" width="1000" height="916" as="geometry" />
        </mxCell>
        <mxCell id="B6OoX21ZwnaRHiZaLL_V-31" value="VPC" style="sketch=0;outlineConnect=0;gradientColor=none;html=1;whiteSpace=wrap;fontSize=12;fontStyle=0;shape=mxgraph.aws4.group;grIcon=mxgraph.aws4.group_vpc;strokeColor=#879196;fillColor=none;verticalAlign=top;align=left;spacingLeft=30;fontColor=#879196;dashed=0;shadow=0;" vertex="1" parent="1">
          <mxGeometry x="240" y="720" width="860" height="840" as="geometry" />
        </mxCell>
        <mxCell id="B6OoX21ZwnaRHiZaLL_V-32" value="Availability zone 1" style="sketch=0;outlineConnect=0;gradientColor=none;html=1;whiteSpace=wrap;fontSize=12;fontStyle=0;shape=mxgraph.aws4.group;grIcon=mxgraph.aws4.group_availability_zone;strokeColor=#545B64;fillColor=none;verticalAlign=top;align=left;spacingLeft=30;fontColor=#545B64;dashed=1;shadow=0;" vertex="1" parent="1">
          <mxGeometry x="320" y="760" width="280" height="760" as="geometry" />
        </mxCell>
        <mxCell id="B6OoX21ZwnaRHiZaLL_V-33" value="Availability zone 2" style="sketch=0;outlineConnect=0;gradientColor=none;html=1;whiteSpace=wrap;fontSize=12;fontStyle=0;shape=mxgraph.aws4.group;grIcon=mxgraph.aws4.group_availability_zone;strokeColor=#545B64;fillColor=none;verticalAlign=top;align=left;spacingLeft=30;fontColor=#545B64;dashed=1;shadow=0;" vertex="1" parent="1">
          <mxGeometry x="710" y="760" width="290" height="760" as="geometry" />
        </mxCell>
        <mxCell id="B6OoX21ZwnaRHiZaLL_V-38" value="Auto Scaling Group" style="sketch=0;outlineConnect=0;gradientColor=none;html=1;whiteSpace=wrap;fontSize=12;fontStyle=0;shape=mxgraph.aws4.groupCenter;grIcon=mxgraph.aws4.group_auto_scaling_group;grStroke=0;strokeColor=#879196;fillColor=#ECEFEF;verticalAlign=top;align=center;fontColor=#879196;dashed=0;spacingTop=25;shadow=0;" vertex="1" parent="1">
          <mxGeometry x="350" y="788" width="610" height="222" as="geometry" />
        </mxCell>
        <mxCell id="B6OoX21ZwnaRHiZaLL_V-34" value="Public Subnet" style="sketch=0;outlineConnect=0;gradientColor=none;html=1;whiteSpace=wrap;fontSize=12;fontStyle=0;shape=mxgraph.aws4.group;grIcon=mxgraph.aws4.group_subnet;strokeColor=#879196;fillColor=none;verticalAlign=top;align=left;spacingLeft=30;fontColor=#879196;dashed=0;shadow=0;" vertex="1" parent="1">
          <mxGeometry x="380" y="799" width="160" height="200" as="geometry" />
        </mxCell>
        <mxCell id="B6OoX21ZwnaRHiZaLL_V-35" value="Public Subnet" style="sketch=0;outlineConnect=0;gradientColor=none;html=1;whiteSpace=wrap;fontSize=12;fontStyle=0;shape=mxgraph.aws4.group;grIcon=mxgraph.aws4.group_subnet;strokeColor=#879196;fillColor=none;verticalAlign=top;align=left;spacingLeft=30;fontColor=#879196;dashed=0;shadow=0;" vertex="1" parent="1">
          <mxGeometry x="740" y="799" width="160" height="200" as="geometry" />
        </mxCell>
        <mxCell id="B6OoX21ZwnaRHiZaLL_V-41" value="Auto Scaling Group" style="sketch=0;outlineConnect=0;gradientColor=none;html=1;whiteSpace=wrap;fontSize=12;fontStyle=0;shape=mxgraph.aws4.groupCenter;grIcon=mxgraph.aws4.group_auto_scaling_group;grStroke=0;strokeColor=#879196;fillColor=#ECEFEF;verticalAlign=top;align=center;fontColor=#879196;dashed=0;spacingTop=25;shadow=0;" vertex="1" parent="1">
          <mxGeometry x="360" y="1240" width="600" height="240" as="geometry" />
        </mxCell>
        <mxCell id="B6OoX21ZwnaRHiZaLL_V-36" value="Private Subnet" style="sketch=0;outlineConnect=0;gradientColor=none;html=1;whiteSpace=wrap;fontSize=12;fontStyle=0;shape=mxgraph.aws4.group;grIcon=mxgraph.aws4.group_subnet;strokeColor=#879196;fillColor=none;verticalAlign=top;align=left;spacingLeft=30;fontColor=#879196;dashed=0;shadow=0;" vertex="1" parent="1">
          <mxGeometry x="390" y="1260" width="160" height="200" as="geometry" />
        </mxCell>
        <mxCell id="B6OoX21ZwnaRHiZaLL_V-37" value="Private Subnet" style="sketch=0;outlineConnect=0;gradientColor=none;html=1;whiteSpace=wrap;fontSize=12;fontStyle=0;shape=mxgraph.aws4.group;grIcon=mxgraph.aws4.group_subnet;strokeColor=#879196;fillColor=none;verticalAlign=top;align=left;spacingLeft=30;fontColor=#879196;dashed=0;shadow=0;" vertex="1" parent="1">
          <mxGeometry x="760" y="1260" width="160" height="200" as="geometry" />
        </mxCell>
        <mxCell id="B6OoX21ZwnaRHiZaLL_V-39" value="Web Tier" style="text;html=1;resizable=0;autosize=1;align=center;verticalAlign=middle;points=[];fillColor=none;strokeColor=none;rounded=0;shadow=0;dashed=1;sketch=0;" vertex="1" parent="1">
          <mxGeometry x="560" y="960" width="60" height="20" as="geometry" />
        </mxCell>
        <mxCell id="B6OoX21ZwnaRHiZaLL_V-43" value="" style="sketch=0;points=[[0,0,0],[0.25,0,0],[0.5,0,0],[0.75,0,0],[1,0,0],[0,1,0],[0.25,1,0],[0.5,1,0],[0.75,1,0],[1,1,0],[0,0.25,0],[0,0.5,0],[0,0.75,0],[1,0.25,0],[1,0.5,0],[1,0.75,0]];outlineConnect=0;fontColor=#232F3E;gradientColor=#F78E04;gradientDirection=north;fillColor=#D05C17;strokeColor=#ffffff;dashed=0;verticalLabelPosition=bottom;verticalAlign=top;align=center;html=1;fontSize=12;fontStyle=0;aspect=fixed;shape=mxgraph.aws4.resourceIcon;resIcon=mxgraph.aws4.lambda;shadow=0;" vertex="1" parent="1">
          <mxGeometry x="610" y="1090" width="78" height="78" as="geometry" />
        </mxCell>
        <mxCell id="B6OoX21ZwnaRHiZaLL_V-44" value="" style="sketch=0;outlineConnect=0;fontColor=#232F3E;gradientColor=none;fillColor=#F78E04;strokeColor=none;dashed=0;verticalLabelPosition=bottom;verticalAlign=top;align=center;html=1;fontSize=12;fontStyle=0;aspect=fixed;pointerEvents=1;shape=mxgraph.aws4.rds_instance;shadow=0;" vertex="1" parent="1">
          <mxGeometry x="431" y="1330" width="78" height="78" as="geometry" />
        </mxCell>
        <mxCell id="B6OoX21ZwnaRHiZaLL_V-46" value="" style="sketch=0;points=[[0,0,0],[0.25,0,0],[0.5,0,0],[0.75,0,0],[1,0,0],[0,1,0],[0.25,1,0],[0.5,1,0],[0.75,1,0],[1,1,0],[0,0.25,0],[0,0.5,0],[0,0.75,0],[1,0.25,0],[1,0.5,0],[1,0.75,0]];outlineConnect=0;fontColor=#232F3E;gradientColor=#F78E04;gradientDirection=north;fillColor=#D05C17;strokeColor=#ffffff;dashed=0;verticalLabelPosition=bottom;verticalAlign=top;align=center;html=1;fontSize=12;fontStyle=0;aspect=fixed;shape=mxgraph.aws4.resourceIcon;resIcon=mxgraph.aws4.auto_scaling2;shadow=0;" vertex="1" parent="1">
          <mxGeometry x="431" y="850" width="78" height="78" as="geometry" />
        </mxCell>
        <mxCell id="B6OoX21ZwnaRHiZaLL_V-47" value="" style="sketch=0;points=[[0,0,0],[0.25,0,0],[0.5,0,0],[0.75,0,0],[1,0,0],[0,1,0],[0.25,1,0],[0.5,1,0],[0.75,1,0],[1,1,0],[0,0.25,0],[0,0.5,0],[0,0.75,0],[1,0.25,0],[1,0.5,0],[1,0.75,0]];outlineConnect=0;fontColor=#232F3E;gradientColor=#F78E04;gradientDirection=north;fillColor=#D05C17;strokeColor=#ffffff;dashed=0;verticalLabelPosition=bottom;verticalAlign=top;align=center;html=1;fontSize=12;fontStyle=0;aspect=fixed;shape=mxgraph.aws4.resourceIcon;resIcon=mxgraph.aws4.auto_scaling2;shadow=0;" vertex="1" parent="1">
          <mxGeometry x="772" y="850" width="78" height="78" as="geometry" />
        </mxCell>
        <mxCell id="B6OoX21ZwnaRHiZaLL_V-48" value="" style="sketch=0;outlineConnect=0;fontColor=#232F3E;gradientColor=none;fillColor=#F78E04;strokeColor=none;dashed=0;verticalLabelPosition=bottom;verticalAlign=top;align=center;html=1;fontSize=12;fontStyle=0;aspect=fixed;pointerEvents=1;shape=mxgraph.aws4.rds_instance;shadow=0;" vertex="1" parent="1">
          <mxGeometry x="810" y="1330" width="78" height="78" as="geometry" />
        </mxCell>
      </root>
    </mxGraphModel>
  </diagram>
</mxfile>
